<?xml version="1.0" encoding="UTF-8" standalone="no"?>
<!DOCTYPE svg PUBLIC "-//W3C//DTD SVG 1.1//EN" "http://www.w3.org/Graphics/SVG/1.1/DTD/svg11.dtd">
<svg version="1.1" xmlns="http://www.w3.org/2000/svg" xmlns:xlink="http://www.w3.org/1999/xlink" preserveAspectRatio="xMidYMid meet" viewBox="0 0 640 640" width="20" height="640"><defs><path d="M91.73 603.43L29.68 554.34L29.68 30.75L610.32 30.75L610.32 603.43L91.73 603.43ZM307.9 243.66L305.22 243.9L302.57 244.24L299.96 244.67L297.38 245.19L294.84 245.79L292.35 246.49L289.89 247.26L287.48 248.12L285.12 249.07L282.81 250.08L280.55 251.18L278.34 252.35L276.19 253.6L274.1 254.91L272.06 256.29L270.09 257.75L268.19 259.26L266.35 260.84L264.58 262.48L262.88 264.18L261.25 265.94L259.7 267.75L258.23 269.62L256.83 271.54L255.52 273.51L254.29 275.53L253.15 277.59L252.09 279.7L251.13 281.84L250.26 284.03L249.48 286.26L248.8 288.53L248.22 290.83L247.74 293.16L247.36 295.52L247.09 297.91L246.92 300.33L246.87 302.77L246.92 305.22L247.09 307.63L247.36 310.03L247.74 312.39L248.22 314.72L248.8 317.02L249.48 319.28L250.26 321.51L251.13 323.7L252.09 325.85L253.15 327.96L254.29 330.02L255.52 332.04L256.83 334.01L258.23 335.93L259.7 337.79L261.25 339.61L262.88 341.36L264.58 343.06L266.35 344.71L268.19 346.28L270.09 347.8L272.06 349.25L274.1 350.64L276.19 351.95L278.34 353.19L280.55 354.37L282.81 355.46L285.12 356.48L287.48 357.42L289.89 358.28L292.35 359.06L294.84 359.75L297.38 360.36L299.96 360.88L302.57 361.31L305.22 361.65L307.9 361.89L310.61 362.04L313.35 362.09L316.09 362.04L318.8 361.89L321.48 361.65L324.13 361.31L326.74 360.88L329.32 360.36L331.86 359.75L334.36 359.06L336.81 358.28L339.22 357.42L341.58 356.48L343.89 355.46L346.16 354.37L348.36 353.19L350.51 351.95L352.61 350.64L354.64 349.25L356.61 347.8L358.52 346.28L360.35 344.71L362.13 343.06L363.82 341.36L365.45 339.61L367 337.79L368.48 335.93L369.87 334.01L371.18 332.04L372.41 330.02L373.55 327.96L374.61 325.85L375.57 323.7L376.45 321.51L377.22 319.28L377.9 317.02L378.49 314.72L378.97 312.39L379.34 310.03L379.62 307.63L379.78 305.22L379.84 302.77L379.78 300.33L379.62 297.91L379.34 295.52L378.97 293.16L378.49 290.83L377.9 288.53L377.22 286.26L376.45 284.03L375.57 281.84L374.61 279.7L373.55 277.59L372.41 275.53L371.18 273.51L369.87 271.54L368.48 269.62L367 267.75L365.45 265.94L363.82 264.18L362.13 262.48L360.35 260.84L358.52 259.26L356.61 257.75L354.64 256.29L352.61 254.91L350.51 253.6L348.36 252.35L346.16 251.18L343.89 250.08L341.58 249.07L339.22 248.12L336.81 247.26L334.36 246.49L331.86 245.79L329.32 245.19L326.74 244.67L324.13 244.24L321.48 243.9L318.8 243.66L316.09 243.51L313.35 243.46L310.61 243.51L307.9 243.66ZM51.84 125.65L82.87 125.65L82.87 59.39L51.84 59.39L51.84 125.65Z" id="h45tdkdx65"></path><path d="M151.57 615.7L151.57 411.17L506.16 411.17L506.16 615.7L151.57 615.7ZM204.76 603.43L297.84 603.43L297.84 435.72L204.76 435.72L204.76 603.43Z" id="c1EYM8f0IW"></path><path d="M104.14 30.75L553.59 30.75L553.59 218.92L104.14 218.92L104.14 30.75Z" id="e35Yrje4Ox"></path><path d="M55.48 556.45L313.92 48.92L596.34 556.45L55.48 556.45ZM497.11 487.35L300.83 133.51L125.27 487.35L497.11 487.35Z" id="ahqI0OFWF"></path></defs><g><g><g><use xlink:href="#h45tdkdx65" opacity="1" fill="#87b4ff" fill-opacity="1"></use><g><use xlink:href="#h45tdkdx65" opacity="1" fill-opacity="0" stroke="#000000" stroke-width="0" stroke-opacity="1"></use></g></g><g><use xlink:href="#c1EYM8f0IW" opacity="1" fill="#dddcdc" fill-opacity="1"></use></g><g><use xlink:href="#e35Yrje4Ox" opacity="1" fill="#dddddd" fill-opacity="1"></use></g><g><use xlink:href="#ahqI0OFWF" opacity="1" fill="#bf0089" fill-opacity="1"></use><g><use xlink:href="#ahqI0OFWF" opacity="1" fill-opacity="0" stroke="#000000" stroke-width="0" stroke-opacity="1"></use></g></g></g></g></svg>